<svg width="20" height="20" viewBox="0 0 20 20" fill="none" xmlns="http://www.w3.org/2000/svg">
<g id="&#240;&#159;&#166;&#134; icon &#34;copy&#34;">
<path id="Vector" d="M17.2008 7.2998H9.10078C8.10667 7.2998 7.30078 8.10569 7.30078 9.0998V17.1998C7.30078 18.1939 8.10667 18.9998 9.10078 18.9998H17.2008C18.1949 18.9998 19.0008 18.1939 19.0008 17.1998V9.0998C19.0008 8.10569 18.1949 7.2998 17.2008 7.2998Z" stroke="#5587FD" stroke-width="2" stroke-linecap="round" stroke-linejoin="round"/>
<path id="Vector_2" d="M3.7 12.7H2.8C2.32261 12.7 1.86477 12.5104 1.52721 12.1728C1.18964 11.8352 1 11.3774 1 10.9V2.8C1 2.32261 1.18964 1.86477 1.52721 1.52721C1.86477 1.18964 2.32261 1 2.8 1H10.9C11.3774 1 11.8352 1.18964 12.1728 1.52721C12.5104 1.86477 12.7 2.32261 12.7 2.8V3.7" stroke="#5587FD" stroke-width="2" stroke-linecap="round" stroke-linejoin="round"/>
</g>
</svg>
