<svg width="17" height="20" viewBox="0 0 17 20" fill="none" xmlns="http://www.w3.org/2000/svg">
<path d="M10 1H2.8C2.32261 1 1.86477 1.18964 1.52721 1.52721C1.18964 1.86477 1 2.32261 1 2.8V17.2C1 17.6774 1.18964 18.1352 1.52721 18.4728C1.86477 18.8104 2.32261 19 2.8 19H13.6C14.0774 19 14.5352 18.8104 14.8728 18.4728C15.2104 18.1352 15.4 17.6774 15.4 17.2V6.4L10 1Z" stroke="#5F5F67" stroke-width="2" stroke-linecap="round" stroke-linejoin="round"/>
<path d="M10 1V6.4H15.4" stroke="#5F5F67" stroke-width="2" stroke-linecap="round" stroke-linejoin="round"/>
<path d="M11.7996 10.8999H4.59961" stroke="#5F5F67" stroke-width="2" stroke-linecap="round" stroke-linejoin="round"/>
<path d="M11.7996 14.5H4.59961" stroke="#5F5F67" stroke-width="2" stroke-linecap="round" stroke-linejoin="round"/>
<path d="M6.39961 7.2998H5.49961H4.59961" stroke="#5F5F67" stroke-width="2" stroke-linecap="round" stroke-linejoin="round"/>
</svg>
