<svg width="19" height="21" viewBox="0 0 19 21" fill="none" xmlns="http://www.w3.org/2000/svg">
<path d="M14.7167 7.10583C14.7167 5.65067 14.1387 4.25511 13.1097 3.22615C12.0808 2.1972 10.6852 1.61914 9.23003 1.61914C7.77487 1.61914 6.37931 2.1972 5.35036 3.22615C4.3214 4.25511 3.74334 5.65067 3.74334 7.10583C3.74334 13.507 1 15.3359 1 15.3359H17.4601C17.4601 15.3359 14.7167 13.507 14.7167 7.10583Z" stroke="#5F5F67" stroke-width="2" stroke-linecap="round" stroke-linejoin="round"/>
<path d="M10.8124 18.9932C10.6517 19.2703 10.4209 19.5004 10.1433 19.6603C9.86562 19.8202 9.55084 19.9044 9.23043 19.9044C8.91003 19.9044 8.59525 19.8202 8.31761 19.6603C8.03996 19.5004 7.80921 19.2703 7.64844 18.9932" stroke="#5F5F67" stroke-width="2" stroke-linecap="round" stroke-linejoin="round"/>
</svg>
